<?xml version="1.0" encoding="UTF-8" standalone="no"?>
<!-- Generator: Adobe Illustrator 26.5.0, SVG Export Plug-In . SVG Version: 6.00 Build 0)  -->

<svg
   version="1.1"
   id="Layer_1"
   x="0px"
   y="0px"
   viewBox="0 0 2521 2911"
   style="enable-background:new 0 0 2521 2911;"
   xml:space="preserve"
   sodipodi:docname="edu.wustl.i2db.xlam.svg"
   inkscape:version="1.3.2 (091e20e, 2023-11-25, custom)"
   xmlns:inkscape="http://www.inkscape.org/namespaces/inkscape"
   xmlns:sodipodi="http://sodipodi.sourceforge.net/DTD/sodipodi-0.dtd"
   xmlns="http://www.w3.org/2000/svg"
   xmlns:svg="http://www.w3.org/2000/svg"><defs
   id="defs12">
			
		
	
</defs><sodipodi:namedview
   id="namedview12"
   pagecolor="#ffffff"
   bordercolor="#000000"
   borderopacity="0.25"
   inkscape:showpageshadow="2"
   inkscape:pageopacity="0.0"
   inkscape:pagecheckerboard="0"
   inkscape:deskcolor="#d1d1d1"
   inkscape:zoom="0.28546891"
   inkscape:cx="1259.3315"
   inkscape:cy="1455.5"
   inkscape:window-width="1920"
   inkscape:window-height="1027"
   inkscape:window-x="-8"
   inkscape:window-y="-8"
   inkscape:window-maximized="1"
   inkscape:current-layer="g12" />
<style
   type="text/css"
   id="style1">
	.st0{fill:#42709B;}
	.st1{fill-rule:evenodd;clip-rule:evenodd;fill:#DCE1EB;}
	.st2{fill:#FFFFFF;}
</style>
<g
   id="g12"
   style="display:inline"
   inkscape:label="hex_sticker">
		
		
	<polygon
   class="st0"
   points="0,727.8 0,2183.2 1260.5,2911 2521,2183.2 2521,727.8 1260.5,0 "
   id="polygon1"
   style="display:inline;fill:#6c7373;fill-opacity:1"
   inkscape:label="background" /><path
   style="display:inline;fill:#a51417;fill-opacity:1;stroke-width:3.50301"
   d="M 665.25167,2565.5124 C 337.89634,2376.5211 54.690719,2213.0586 35.905836,2202.2623 L 1.7515042,2182.6327 V 1455.5417 728.45078 L 630.73064,365.25133 1259.7097,2.0518795 1888.3107,365.03117 2516.9116,728.01048 v 727.69402 727.6941 l -472.0304,272.5356 c -259.6167,149.8946 -537.4491,310.2058 -617.4053,356.2472 -79.9561,46.0413 -150.2479,86.6905 -156.2038,90.3315 l -10.8289,6.62 z m 1177.30823,-101.1631 579.6224,-334.5202 -0.025,-670.8261 -0.025,-670.8261 L 1840.826,452.76415 1259.5194,117.3514 682.30484,450.56199 c -317.46802,183.2658 -579.18503,334.78864 -581.59335,336.7174 -3.475462,2.78342 -4.378758,141.42549 -4.378758,672.07181 v 668.5649 l 8.020018,5.2549 c 23.73695,15.5531 1153.65405,666.9474 1155.90605,666.3769 1.4733,-0.3732 263.5088,-151.2126 582.3011,-335.1986 z"
   id="path12"
   inkscape:label="border" /><path
   class="a"
   d="M 1818.9354,1203.5925 V 596.59744 h -48.5597 v 48.5596 h -48.5596 v -48.5596 h -145.6787 v 48.5596 h -48.5597 v -48.5596 h -48.5595 v 315.63737 h -97.1193 v 72.83934 h -48.5595 v -64.09863 l -70.4114,-74.53898 -75.2674,74.29616 v 64.34145 h -48.5595 v -72.83934 h -97.1193 V 596.59744 h -48.55957 v 48.5596 h -48.55967 v -48.5596 H 799.1838 v 48.5596 h -48.55961 v -48.5596 H 702.0646 V 1203.5925 H 580.66562 v 291.3574 0 339.9172 H 1139.1011 V 1649.855 c 25.7365,-24.2798 92.9915,-33.5061 132.082,-33.5061 21.8519,0 85.7077,6.3128 110.7158,32.7777 v 185.7405 h 558.4355 v -631.2746 z m -48.5597,97.1192 v 169.9585 h -242.798 v -291.3576 h 242.798 z M 702.0646,1470.6702 h -72.83938 v -121.3991 h 72.83938 z m 48.55958,-291.3576 h 242.79806 v 291.3576 H 750.62419 Z m 242.79806,-48.5597 H 750.62419 V 815.11558 h 242.79806 z m 48.55956,24.2799 h 437.0364 v 315.6374 h -437.0364 z m 728.3939,-24.2799 h -242.798 V 815.11558 h 242.798 z M 1624.697,693.71663 v -48.55959 h 48.5596 v 48.55959 h 97.1191 v 72.83938 h -242.798 v -72.83938 z m -534.1556,267.07769 v 72.83948 h 145.6788 v -92.74883 l 24.2798,-24.27979 24.2798,24.27979 v 92.74883 h 145.6788 v -72.83948 h 48.5596 V 1106.4732 H 1041.9818 V 960.79432 Z M 847.74339,693.71663 v -48.55959 h 48.55959 v 48.55959 h 97.11927 v 72.83938 H 750.62419 V 693.71663 Z M 629.22522,1252.152 h 72.83938 v 48.5597 h -72.83938 z m 0,534.1556 v -267.0778 h 72.83938 v 267.0778 z m 364.19702,0 H 750.62419 v -267.0778 h 242.79806 z m 437.03636,0 V 1633.102 l -4.1275,-6.07 c -38.3622,-57.5431 -141.5513,-59.2427 -154.1768,-59.2427 -12.6254,0 -133.7816,1.6996 -175.7858,58.2715 l -4.8559,6.5557 v 153.6911 h -49.5308 v -267.0778 h 437.0364 v 267.0778 z m 97.1191,0 v -267.0778 h 242.798 v 267.0778 z m 364.197,0 h -72.8393 v -267.0778 h 72.8393 z m -72.8393,-315.6374 v -121.3991 h 72.8393 v 121.3991 z m 0,-169.9585 v -48.5597 h 72.8393 v 48.5597 z M 1624.697,936.51463 v -48.55961 h 48.5596 v 48.55961 z m -825.5132,0 v -48.55961 h 48.55958 v 48.55961 z m 825.5132,412.75647 h 48.5596 v 48.5596 h -48.5596 z m -728.39402,48.5596 h -48.55959 v -48.5596 h 48.55959 z m 48.5596,-121.3989 h -48.5596 v -48.5597 h 48.5596 z m 679.83442,0 h -48.5596 v -48.5597 h 48.5596 z m 48.5596,291.3575 h 48.5595 v 48.5596 h -48.5595 z m -874.0728,0 h 48.55958 v 48.5596 H 799.1838 Z m 291.3576,-145.6787 h 145.6788 v -194.2385 h -145.6788 z m 48.5597,-145.6788 h 48.5595 v 97.1191 h -48.5595 z m 145.6787,-48.5597 v 194.2385 h 145.6788 v -194.2385 z m 97.1191,145.6788 h -48.5595 v -97.1191 h 48.5595 z"
   id="path1"
   style="display:inline;fill:#a51417;fill-opacity:1;stroke-width:24.2798"
   inkscape:label="brookings" /><text
   xml:space="preserve"
   style="font-style:normal;font-variant:normal;font-weight:normal;font-stretch:normal;font-size:240px;font-family:Arial;-inkscape-font-specification:'Arial, Normal';font-variant-ligatures:normal;font-variant-caps:normal;font-variant-numeric:normal;font-variant-east-asian:normal;fill:#a51417;fill-opacity:1"
   x="209.97266"
   y="2091.2959"
   id="text12"
   inkscape:label="package"><tspan
     sodipodi:role="line"
     id="tspan12"
     x="209.97266"
     y="2091.2959">edu.wustl.i2db.xlam</tspan></text></g>
</svg>
