<svg xmlns="http://www.w3.org/2000/svg" viewBox="0 0 64 64"><defs><style>.a{fill:#d01c29;}</style></defs><path class="a" d="M55,34V9H53v2H51V9H45v2H43V9H41V22H37v3H35V22.36L32.1,19.29,29,22.35V25H27V22H23V9H21v2H19V9H13v2H11V9H9V34H4V46H4V60H27V52.38c1.06-1,3.83-1.38,5.44-1.38.9,0,3.53.26,4.56,1.35V60H60V34Zm-2,4v7H43V33H53v5ZM9,45H6V40H9Zm2-12H21V45H11V33Zm10-2H11V18H21Zm2,1H41V45H23Zm30-1H43V18H53ZM47,13V11h2v2h4v3H43V13ZM25,24v3h6V23.18l1-1,1,1V27h6V24h2v6H23V24ZM15,13V11h2v2h4v3H11V13ZM6,36H9v2H6ZM6,58V47H9V58Zm15,0H11V47H21V58Zm18,0V51.69l-.17-.25C37.25,49.07,33,49,32.48,49s-5.51.07-7.24,2.4l-.2.27V58H23V47H41V58Zm4,0V47H53V58Zm15,0H55V47h3ZM55,45V40h3v5Zm0-7V36h3v2ZM47,23V21h2v2ZM13,23V21h2v2ZM47,40h2v2H47ZM17,42H15V40h2Zm2-5H17V35h2Zm28,0H45V35h2Zm2,12h2v2H49ZM13,49h2v2H13Zm12-6h6V35H25Zm2-6h2v4H27Zm6-2v8h6V35Zm4,6H35V37h2Z"/></svg>